OS.mot
version=1
datacolumns 20
datarows 61
range 0.780000 1.380000
inDegrees=yes
endheader
time	pelvis_list	pelvis_rotation	pelvis_tilt	hip_flexion_r	hip_adduction_r	hip_rotation_r	knee_angle_r	ankle_angle_r	hip_flexion_l	hip_adduction_l	hip_rotation_l	knee_angle_l	ankle_angle_l	pelvis_tx	pelvis_ty	pelvis_tz	lumbarbending	lumbar_rotation	lumbar_extension
0.780000	3.050000	0.100000	0.040000	-13.800000	4.760000	-14.940000	-1.100000	13.890000	36.450000	0.400000	-10.680000	-3.920000	5.130000	1.350000	0.990000	-0.060000	-5.450000	6.010000	2.370000
0.790000	3.050000	0.100000	0.040000	-14.440000	4.770000	-14.650000	-1.470000	14.240000	37.000000	0.300000	-10.570000	-4.160000	5.320000	1.340000	0.990000	-0.060000	-5.630000	5.690000	2.030000
0.800000	3.050000	0.100000	0.040000	-14.970000	4.730000	-14.400000	-2.000000	14.530000	37.630000	0.120000	-10.470000	-4.960000	5.440000	1.320000	0.980000	-0.060000	-5.790000	5.330000	1.780000
0.810000	3.050000	0.110000	0.040000	-15.390000	4.620000	-14.230000	-2.660000	14.750000	38.290000	-0.150000	-10.400000	-6.220000	5.420000	1.310000	0.980000	-0.060000	-5.940000	4.960000	1.590000
0.820000	3.050000	0.110000	0.040000	-15.730000	4.440000	-14.110000	-3.420000	14.840000	38.950000	-0.500000	-10.360000	-7.780000	5.160000	1.290000	0.980000	-0.050000	-6.100000	4.620000	1.430000
0.830000	3.050000	0.120000	0.040000	-16.010000	4.190000	-14.020000	-4.260000	14.740000	39.560000	-0.910000	-10.340000	-9.520000	4.620000	1.280000	0.980000	-0.050000	-6.280000	4.340000	1.290000
0.840000	3.050000	0.120000	0.030000	-16.240000	3.880000	-13.950000	-5.160000	14.410000	40.110000	-1.350000	-10.310000	-11.310000	3.760000	1.260000	0.970000	-0.050000	-6.490000	4.130000	1.170000
0.850000	3.050000	0.130000	0.030000	-16.440000	3.500000	-13.890000	-6.110000	13.820000	40.550000	-1.780000	-10.280000	-13.050000	2.630000	1.240000	0.970000	-0.050000	-6.710000	3.990000	1.070000
0.860000	3.050000	0.130000	0.020000	-16.600000	3.070000	-13.850000	-7.130000	12.940000	40.890000	-2.190000	-10.210000	-14.690000	1.350000	1.230000	0.970000	-0.050000	-6.950000	3.910000	1.000000
0.870000	3.050000	0.140000	0.020000	-16.690000	2.570000	-13.820000	-8.270000	11.760000	41.120000	-2.550000	-10.090000	-16.220000	0.030000	1.210000	0.970000	-0.050000	-7.190000	3.870000	0.970000
0.880000	3.050000	0.140000	0.020000	-16.670000	2.010000	-13.810000	-9.570000	10.300000	41.270000	-2.870000	-9.910000	-17.650000	-1.190000	1.190000	0.970000	-0.040000	-7.440000	3.890000	0.980000
0.890000	3.060000	0.150000	0.010000	-16.490000	1.380000	-13.780000	-11.120000	8.570000	41.330000	-3.140000	-9.640000	-19.020000	-2.200000	1.170000	0.970000	-0.040000	-7.680000	3.970000	1.020000
0.900000	3.060000	0.150000	0.010000	-16.120000	0.660000	-13.710000	-12.990000	6.610000	41.340000	-3.380000	-9.280000	-20.370000	-2.940000	1.150000	0.970000	-0.040000	-7.910000	4.120000	1.070000
0.910000	3.060000	0.150000	0.010000	-15.510000	-0.150000	-13.570000	-15.240000	4.470000	41.270000	-3.620000	-8.830000	-21.700000	-3.370000	1.140000	0.970000	-0.040000	-8.130000	4.320000	1.130000
0.920000	3.070000	0.150000	0.000000	-14.630000	-1.030000	-13.340000	-17.910000	2.220000	41.140000	-3.850000	-8.290000	-23.010000	-3.490000	1.120000	0.970000	-0.030000	-8.330000	4.560000	1.170000
0.930000	3.070000	0.160000	-0.000000	-13.480000	-1.970000	-13.050000	-21.000000	-0.070000	40.930000	-4.090000	-7.690000	-24.250000	-3.340000	1.100000	0.980000	-0.030000	-8.520000	4.820000	1.200000
0.940000	3.080000	0.160000	-0.010000	-12.050000	-2.950000	-12.700000	-24.450000	-2.340000	40.620000	-4.360000	-7.040000	-25.380000	-2.950000	1.090000	0.980000	-0.030000	-8.690000	5.060000	1.220000
0.950000	3.090000	0.160000	-0.020000	-10.380000	-3.920000	-12.300000	-28.170000	-4.520000	40.210000	-4.660000	-6.390000	-26.360000	-2.380000	1.070000	0.980000	-0.030000	-8.830000	5.280000	1.250000
0.960000	3.090000	0.160000	-0.020000	-8.510000	-4.870000	-11.840000	-32.040000	-6.590000	39.670000	-4.990000	-5.760000	-27.140000	-1.680000	1.050000	0.980000	-0.030000	-8.950000	5.470000	1.300000
0.970000	3.100000	0.160000	-0.030000	-6.500000	-5.760000	-11.300000	-35.940000	-8.540000	39.020000	-5.340000	-5.160000	-27.700000	-0.880000	1.040000	0.980000	-0.020000	-9.040000	5.610000	1.360000
0.980000	3.100000	0.160000	-0.030000	-4.380000	-6.570000	-10.670000	-39.770000	-10.290000	38.260000	-5.680000	-4.590000	-28.050000	-0.020000	1.020000	0.990000	-0.020000	-9.090000	5.710000	1.440000
0.990000	3.110000	0.160000	-0.040000	-2.200000	-7.260000	-9.950000	-43.450000	-11.760000	37.390000	-5.980000	-4.070000	-28.200000	0.840000	1.010000	0.990000	-0.020000	-9.090000	5.780000	1.530000
1.000000	3.110000	0.160000	-0.040000	0.030000	-7.790000	-9.150000	-46.930000	-12.830000	36.440000	-6.190000	-3.590000	-28.170000	1.690000	0.990000	0.990000	-0.020000	-9.050000	5.820000	1.600000
1.010000	3.120000	0.160000	-0.040000	2.280000	-8.150000	-8.320000	-50.200000	-13.410000	35.410000	-6.280000	-3.150000	-27.990000	2.490000	0.980000	1.000000	-0.020000	-8.970000	5.830000	1.640000
1.020000	3.120000	0.160000	-0.040000	4.580000	-8.320000	-7.480000	-53.260000	-13.490000	34.320000	-6.220000	-2.750000	-27.670000	3.220000	0.960000	1.000000	-0.010000	-8.830000	5.800000	1.640000
1.030000	3.120000	0.160000	-0.030000	6.900000	-8.310000	-6.680000	-56.100000	-13.120000	33.190000	-6.010000	-2.380000	-27.250000	3.880000	0.950000	1.000000	-0.010000	-8.630000	5.700000	1.580000
1.040000	3.130000	0.160000	-0.030000	9.260000	-8.160000	-5.930000	-58.690000	-12.430000	32.060000	-5.690000	-2.020000	-26.720000	4.460000	0.930000	1.010000	-0.010000	-8.350000	5.540000	1.440000
1.050000	3.130000	0.170000	-0.020000	11.640000	-7.910000	-5.250000	-61.000000	-11.520000	30.930000	-5.290000	-1.650000	-26.110000	4.960000	0.920000	1.010000	-0.010000	-8.000000	5.310000	1.240000
1.060000	3.130000	0.170000	-0.020000	14.030000	-7.610000	-4.650000	-63.000000	-10.490000	29.810000	-4.850000	-1.260000	-25.420000	5.390000	0.910000	1.010000	-0.010000	-7.600000	5.010000	0.980000
1.070000	3.130000	0.170000	-0.010000	16.390000	-7.270000	-4.110000	-64.650000	-9.420000	28.710000	-4.400000	-0.830000	-24.660000	5.750000	0.900000	1.020000	-0.010000	-7.180000	4.660000	0.690000
1.080000	3.140000	0.170000	-0.010000	18.700000	-6.920000	-3.630000	-65.920000	-8.340000	27.620000	-3.990000	-0.380000	-23.850000	6.060000	0.880000	1.020000	-0.010000	-6.750000	4.280000	0.390000
1.090000	3.140000	0.170000	-0.000000	20.920000	-6.570000	-3.170000	-66.790000	-7.300000	26.520000	-3.600000	0.100000	-23.010000	6.330000	0.870000	1.020000	-0.000000	-6.340000	3.890000	0.080000
1.100000	3.140000	0.180000	-0.000000	23.050000	-6.210000	-2.760000	-67.290000	-6.290000	25.420000	-3.260000	0.600000	-22.140000	6.580000	0.860000	1.030000	-0.000000	-5.940000	3.540000	-0.220000
1.110000	3.140000	0.180000	0.000000	25.070000	-5.860000	-2.370000	-67.420000	-5.310000	24.300000	-2.950000	1.120000	-21.280000	6.810000	0.850000	1.030000	-0.000000	-5.550000	3.240000	-0.550000
1.120000	-3.140000	0.180000	0.010000	26.990000	-5.530000	-2.030000	-67.230000	-4.360000	23.160000	-2.690000	1.680000	-20.440000	7.030000	0.830000	1.030000	-0.000000	-5.150000	3.010000	-0.920000
1.130000	-3.140000	0.180000	0.010000	28.810000	-5.240000	-1.710000	-66.750000	-3.450000	21.990000	-2.500000	2.270000	-19.610000	7.240000	0.820000	1.040000	-0.000000	-4.770000	2.830000	-1.340000
1.140000	-3.140000	0.180000	0.010000	30.510000	-5.010000	-1.420000	-66.000000	-2.570000	20.790000	-2.390000	2.930000	-18.790000	7.440000	0.810000	1.040000	-0.000000	-4.390000	2.710000	-1.830000
1.150000	-3.130000	0.180000	0.010000	32.080000	-4.840000	-1.140000	-64.990000	-1.690000	19.550000	-2.350000	3.670000	-17.970000	7.640000	0.800000	1.040000	-0.000000	-4.050000	2.620000	-2.360000
1.160000	-3.130000	0.180000	0.010000	33.480000	-4.720000	-0.840000	-63.730000	-0.830000	18.250000	-2.390000	4.490000	-17.120000	7.850000	0.790000	1.040000	-0.000000	-3.740000	2.550000	-2.920000
1.170000	-3.130000	0.170000	0.000000	34.710000	-4.630000	-0.520000	-62.200000	0.000000	16.900000	-2.480000	5.370000	-16.230000	8.110000	0.770000	1.040000	-0.000000	-3.480000	2.470000	-3.470000
1.180000	-3.120000	0.170000	0.000000	35.740000	-4.550000	-0.170000	-60.390000	0.790000	15.490000	-2.620000	6.300000	-15.290000	8.420000	0.760000	1.040000	-0.000000	-3.260000	2.380000	-3.990000
1.190000	-3.120000	0.170000	-0.000000	36.590000	-4.460000	0.230000	-58.300000	1.510000	14.020000	-2.800000	7.250000	-14.310000	8.800000	0.750000	1.040000	-0.000000	-3.090000	2.270000	-4.440000
1.200000	-3.110000	0.160000	-0.000000	37.240000	-4.350000	0.680000	-55.920000	2.190000	12.510000	-3.020000	8.200000	-13.300000	9.250000	0.740000	1.040000	-0.010000	-2.950000	2.170000	-4.820000
1.210000	-3.110000	0.160000	-0.010000	37.700000	-4.230000	1.220000	-53.250000	2.850000	10.970000	-3.310000	9.140000	-12.290000	9.740000	0.720000	1.040000	-0.010000	-2.840000	2.080000	-5.100000
1.220000	-3.100000	0.150000	-0.010000	37.990000	-4.120000	1.880000	-50.300000	3.470000	9.390000	-3.690000	10.050000	-11.290000	10.250000	0.710000	1.040000	-0.010000	-2.750000	2.020000	-5.290000
1.230000	-3.090000	0.150000	-0.020000	38.090000	-4.040000	2.690000	-47.050000	4.070000	7.790000	-4.170000	10.900000	-10.320000	10.730000	0.700000	1.040000	-0.010000	-2.680000	1.990000	-5.370000
1.240000	-3.080000	0.140000	-0.020000	38.030000	-4.010000	3.650000	-43.520000	4.610000	6.180000	-4.770000	11.660000	-9.370000	11.180000	0.680000	1.040000	-0.010000	-2.630000	1.980000	-5.350000
1.250000	-3.080000	0.130000	-0.030000	37.830000	-4.070000	4.780000	-39.710000	5.080000	4.550000	-5.480000	12.290000	-8.440000	11.600000	0.670000	1.030000	-0.010000	-2.620000	2.000000	-5.220000
1.260000	-3.070000	0.130000	-0.040000	37.520000	-4.220000	6.030000	-35.670000	5.470000	2.920000	-6.270000	12.790000	-7.530000	11.980000	0.660000	1.030000	-0.010000	-2.680000	2.040000	-4.980000
1.270000	-3.060000	0.120000	-0.050000	37.160000	-4.440000	7.380000	-31.440000	5.740000	1.300000	-7.110000	13.160000	-6.640000	12.360000	0.640000	1.030000	-0.010000	-2.810000	2.110000	-4.640000
1.280000	-3.060000	0.120000	-0.060000	36.780000	-4.710000	8.770000	-27.100000	5.900000	-0.280000	-7.970000	13.430000	-5.760000	12.720000	0.630000	1.020000	-0.010000	-3.020000	2.220000	-4.210000
1.290000	-3.050000	0.120000	-0.070000	36.460000	-5.010000	10.140000	-22.750000	5.940000	-1.810000	-8.800000	13.640000	-4.900000	13.090000	0.610000	1.020000	-0.010000	-3.290000	2.340000	-3.720000
1.300000	-3.050000	0.110000	-0.080000	36.240000	-5.300000	11.450000	-18.530000	5.920000	-3.260000	-9.580000	13.820000	-4.090000	13.470000	0.600000	1.020000	-0.010000	-3.600000	2.470000	-3.190000
1.310000	-3.040000	0.110000	-0.090000	36.140000	-5.560000	12.620000	-14.570000	5.890000	-4.630000	-10.280000	13.970000	-3.360000	13.870000	0.590000	1.010000	-0.010000	-3.930000	2.580000	-2.650000
1.320000	-3.040000	0.110000	-0.100000	36.180000	-5.770000	13.600000	-11.030000	5.910000	-5.900000	-10.880000	14.090000	-2.730000	14.300000	0.570000	1.010000	-0.010000	-4.250000	2.680000	-2.130000
1.330000	-3.040000	0.110000	-0.110000	36.350000	-5.930000	14.370000	-8.060000	6.010000	-7.070000	-11.360000	14.150000	-2.250000	14.780000	0.560000	1.010000	-0.010000	-4.580000	2.780000	-1.640000
1.340000	-3.040000	0.110000	-0.110000	36.640000	-6.030000	14.930000	-5.780000	6.200000	-8.170000	-11.710000	14.140000	-1.950000	15.280000	0.540000	1.000000	-0.020000	-4.900000	2.900000	-1.200000
1.350000	-3.040000	0.110000	-0.110000	37.000000	-6.050000	15.300000	-4.280000	6.460000	-9.190000	-11.940000	14.050000	-1.820000	15.800000	0.530000	1.000000	-0.020000	-5.200000	3.070000	-0.840000
1.360000	-3.040000	0.110000	-0.120000	37.420000	-5.990000	15.520000	-3.570000	6.740000	-10.140000	-12.060000	13.920000	-1.880000	16.310000	0.520000	1.000000	-0.020000	-5.480000	3.280000	-0.570000
1.370000	-3.030000	0.110000	-0.120000	37.830000	-5.840000	15.640000	-3.600000	6.960000	-11.030000	-12.080000	13.790000	-2.120000	16.780000	0.500000	0.990000	-0.020000	-5.730000	3.540000	-0.410000
1.380000	-3.030000	0.110000	-0.120000	38.230000	-5.600000	15.700000	-4.230000	7.070000	-11.860000	-12.030000	13.690000	-2.500000	17.180000	0.490000	0.990000	-0.020000	-5.950000	3.810000	-0.360000
